<?xml version="1.0" encoding="utf-8"?>
<!-- Generator: Adobe Illustrator 18.0.0, SVG Export Plug-In . SVG Version: 6.00 Build 0)  -->
<!DOCTYPE svg PUBLIC "-//W3C//DTD SVG 1.1//EN" "http://www.w3.org/Graphics/SVG/1.1/DTD/svg11.dtd">
<svg version="1.1" id="Layer_1" xmlns="http://www.w3.org/2000/svg" xmlns:xlink="http://www.w3.org/1999/xlink" x="0px" y="0px"
	 width="1169.7px" height="365.1px" viewBox="0 0 1169.7 365.1" enable-background="new 0 0 1169.7 365.1" xml:space="preserve">
<g>
	<path fill="#FFFFFF" d="M81,0c-4.8,0-14.1,1.5-17.5,2.5c-21.2,6-35.5,22.4-37.4,45c-1.4,16.9-0.8,33.9-1.1,50.8c0,2,0,4,0,6.7
		c-8.5,0-16.8,0-25,0c0,6.7,0,13.3,0,20c8.2,0,16.5,0,25.2,0c0,55.6,0,110.2,0,164.6c8.5,0,16.6,0,24.9,0c0-54.8,0-109.2,0-164.3
		c16.5,0,32.7,0,49.8,0l-8.3-18.6l-0.8-1.7h-2.5l-38.2-0.1c-0.3-0.9,0-1.1,0-1.4C50,92.3,49.9,81.2,50,70c0.1-7.3,0.1-14.7,1.1-21.9
		c1.8-13.6,9.6-22.4,21.8-24.8c12.9-2.5,25.2-0.6,36.5,6.3c1.6,1,3.3,2,5.5,3.3c0-7.1-0.2-13.4,0.1-19.7c0.2-3.4-1-5.5-4-6.5
		C104.7,4.4,95.8,0,81,0z"/>
	<path fill="#FFFFFF" d="M240,270.3c-3.6,0.4-6.8,0.9-10.1,1.2c-16.8,1.3-33.6,3-50.3-0.5c-17.3-3.6-30.2-12.2-34.1-30.6
		c-1-4.8-1.2-9.9-1.2-14.9c-0.1-38.2-0.1-76.3-0.1-114.5c0-1.9,0-3.8,0-5.7c-11.7,0-22.6,0-34,0c1.7,4.1,3,7.9,4.9,11.3
		c3.5,6.7,4.5,13.7,4.4,21.2c-0.3,30-0.2,60-0.1,90c0,11.6,1.1,23,6.3,33.6c8.9,18.3,24.9,26.7,43.8,30.5
		c31.9,6.4,63.6,2.1,95.4-3.2c0-61.1,0-121.8,0-182.6c-8.3,0-16.4,0-24.7,0C240,161,240,215.4,240,270.3z"/>
	<path fill="#FFFFFF" d="M1150.5,104.9c-4.9-0.4-7.1,1.1-8.8,6c-18.4,52-37.2,103.9-55.9,155.9c-0.5,1.5-1.2,3-2.2,5.3
		c-20.6-56.4-40.8-111.8-61-167.3c-0.5,0-1,0-1.5,0c-0.5,1.4-1.1,2.8-1.5,4.3c-2.9,10.1-5.9,20.1-8.5,30.3c-0.6,2.4-0.5,5.3,0.4,7.6
		c17.5,45.6,34.8,91.4,53.2,136.6c5.1,12.4,5.8,23,0,35.2c-6.9,14.7-12,30.2-18.1,46.1c7.4,0,13.9-0.2,20.4,0.1
		c3.6,0.2,4.8-1.3,6-4.3c31.7-83.7,63.4-167.3,95.1-250.9c0.5-1.4,1-2.9,1.7-4.8C1162.8,105,1156.6,105.3,1150.5,104.9z"/>
	<path fill="#FFFFFF" d="M807.1,105.5c-34.7-3.5-67.9,11-84.9,43.4c-15.3,29.2-16.5,59.8-5.3,90.5c12.8,34.8,42.6,55.2,78.9,55.5
		c6.1,0.1,10.4-2.7,12.1-7.7c2.7-8-2.7-15-11.8-15.3c-22.7-0.8-40.9-9.9-53-29.6c-8-13-10.7-27.5-10.7-44c0.1-2.3,0.3-5.9,0.6-9.6
		c3-33.3,24.5-56.4,57-60.2c27.8-3.3,54.8,9.4,66.4,38.6c7.4,18.6,7.7,37.6,2.9,56.9c-0.4,1.6-1,3.2-1.4,4.8
		c-1.8,7.3,1.3,13.5,7.6,15.1c6.3,1.7,11.7-1.6,13.9-8.8c5.1-16.3,6.4-32.9,4.5-49.8C879.1,143.9,851.5,110.1,807.1,105.5z"/>
	<path fill="#FFFFFF" d="M538.7,199c-7.8-3.9-16.3-6.7-24.4-10c-8.6-3.5-17.6-6.3-25.7-10.7c-12.2-6.6-16.4-17.2-13.7-30.3
		c2.3-11.3,11.4-19.2,24.4-21c17.5-2.4,33.3,2.1,47.8,11.8c3,2,5.9,4.1,9.6,6.8c0-8.1-0.2-15.2,0.1-22.2c0.2-3.6-1.2-5.5-4.1-7.1
		c-21.2-11.6-43.5-14.2-66.7-8.3c-20.9,5.3-33.5,19.2-35.5,40.1c-2.4,24.1,5,40,24.4,50.4c8,4.3,16.8,7.1,25.3,10.6
		c9,3.8,18.4,6.9,27,11.6c11.2,6.2,15.1,17,12.8,30.5c-1.9,10.9-9.8,18.5-22,21c-18.3,3.8-35.4,1-51.3-9c-4.9-3-9.4-6.6-14.8-10.3
		c0,7.8,0.4,14.9-0.1,22c-0.3,4.8,1.6,7.3,5.6,9.3c23.7,12,48.4,14.5,73.6,6.5c20.3-6.5,32.1-20.9,33.9-42.4
		C566.5,226.3,558.8,209.1,538.7,199z"/>
	<path fill="#FFFFFF" d="M665,272.5c-17,3.7-29-4.9-31.2-22.1c-0.5-3.8-0.8-7.6-0.8-11.4c-0.1-35.6,0-71.3,0-106.9
		c0-1.6,0-3.2,0-5.2c17.5,0,34.2,0,51.2,0c0-7.4,0-14.5,0-21.9c-17.2,0-33.9,0-51.3,0c0-15.1,0-29.8,0-44.6c-8.6,0-16.7,0-25.3,0
		c0,15.1,0,29.8,0,44.9c-9.5,0-18.4,0-27.3,0c0,7.4,0,14.4,0,21.9c9.4,0,18.3,0,27.6,0c0,2.2,0,4,0,5.8c0,35.5,0,71,0,106.4
		c0,5.5,0.3,11,1,16.4c2.8,24.3,18.7,38.7,43.1,39.2c13.2,0.3,25.8-2.4,37.9-7.7c1.6-0.7,3.2-1.6,5-2.4c-3.2-6.3-6.3-12.2-9.2-18
		C678.5,268.8,671.8,271,665,272.5z"/>
	<path fill="#FFFFFF" d="M310.3,289.6c8.4,0,16.4,0,24.4,0c0-95,0-189.5,0-284.3c-8.2,0-16.1,0-24.4,0
		C310.3,100.3,310.3,195,310.3,289.6z"/>
	<path fill="#FFFFFF" d="M385.2,289.7c8.2,0,16.1,0,24.4,0c0-95.1,0-189.7,0-284.3c-8.4,0-16.4,0-24.4,0
		C385.2,100.4,385.2,194.9,385.2,289.7z"/>
	<path fill="#FFFFFF" d="M919.1,122c-3.1,1.8-4.3,3.7-4.3,7.4c0.1,51.8,0.1,103.6,0.1,155.4c0,1.6,0.1,3.2,0.2,5
		c8.1,0,15.9,0,24.5,0c0-2.4,0-4.4,0-6.4c0-46.6,0.1-93.3-0.1-139.9c0-4.7,0.7-7.1,5.6-8.8c2.7-0.9,11.8-4.4,25.8-5.8
		c14.8-1.5,19.4,0,28,0c1.9-6.8,3.9-14.2,6-21.6C976.4,101.4,944.5,107,919.1,122z"/>
</g>
</svg>
